HIERARCHY
ROOT Hips
{
	OFFSET 0.00000 0.00000 0.00000
	CHANNELS 6 Xposition Yposition Zposition Zrotation Yrotation Xrotation 
	JOINT LHipJoint
	{
		OFFSET 0 0 0
		CHANNELS 3 Zrotation Yrotation Xrotation
		JOINT LeftHip
		{
			OFFSET 1.41496 -1.84582 0.78394
			CHANNELS 3 Zrotation Yrotation Xrotation
			JOINT LeftKnee
			{
				OFFSET 2.58040 -7.08960 0.00000
				CHANNELS 3 Zrotation Yrotation Xrotation
				JOINT LeftAnkle
				{
					OFFSET 2.64719 -7.27309 0.00000
					CHANNELS 3 Zrotation Yrotation Xrotation
					JOINT LeftToe
					{
						OFFSET 0.20718 -0.56921 2.20259
						CHANNELS 3 Zrotation Yrotation Xrotation
						End Site
						{
							OFFSET 0.00000 -0.00000 1.14243
						}
					}
				}
			}
		}
	}
	JOINT RHipJoint
	{
		OFFSET 0 0 0
		CHANNELS 3 Zrotation Yrotation Xrotation
		JOINT RightHip
		{
			OFFSET -1.40551 -1.84582 0.78394
			CHANNELS 3 Zrotation Yrotation Xrotation
			JOINT RightKnee
			{
				OFFSET -2.56572 -7.04926 0.00000
				CHANNELS 3 Zrotation Yrotation Xrotation
				JOINT RightAnkle
				{
					OFFSET -2.57974 -7.08778 0.00000
					CHANNELS 3 Zrotation Yrotation Xrotation
					JOINT RightToe
					{
						OFFSET -0.26704 -0.73369 2.20815
						CHANNELS 3 Zrotation Yrotation Xrotation
						End Site
						{
							OFFSET -0.00000 -0.00000 1.16246
						}
					}
				}
			}
		}
	}
	JOINT lowerback
	{
		OFFSET 0 0 0
		CHANNELS 3 Zrotation Yrotation Xrotation
		JOINT Chest
		{
			OFFSET -0.04690 2.05196 -0.07017
			CHANNELS 3 Zrotation Yrotation Xrotation
			JOINT Chest2
			{
				OFFSET 0.04085 2.05260 0.00800
				CHANNELS 3 Zrotation Yrotation Xrotation
				JOINT lowerneck
				{
					OFFSET 0 0 0
					CHANNELS 3 Zrotation Yrotation Xrotation
					JOINT Neck
					{
						OFFSET -0.03582 1.80995 0.19301
						CHANNELS 3 Zrotation Yrotation Xrotation
						JOINT Head
						{
							OFFSET 0.00952 1.80195 -0.36389
							CHANNELS 3 Zrotation Yrotation Xrotation
							End Site
							{
								OFFSET 0.00392 1.85062 -0.14494
							}
						}
					}
				}
				JOINT LeftCollar
				{
					OFFSET 0 0 0
					CHANNELS 3 Zrotation Yrotation Xrotation
					JOINT LeftShoulder
					{
						OFFSET 3.55224 1.39726 -0.13667
CHANNELS 3 Zrotation Xrotation Yrotation
						JOINT LeftElbow
						{
OFFSET 0 -5.145070 -0.000000
CHANNELS 3 Zrotation Xrotation Yrotation
							JOINT LeftWrist
							{
OFFSET 0 -3.506460 0.000000
CHANNELS 3 Zrotation Xrotation Yrotation
								JOINT lhand
								{
									OFFSET 0 0 0
CHANNELS 3 Zrotation Xrotation Yrotation
									JOINT LFingers
									{
OFFSET 0 -0.629970 0.000000
CHANNELS 3 Zrotation Xrotation Yrotation
										End Site
										{
OFFSET 0 -0.507900 0.000000
										}
									}
								}
								JOINT LThumb
								{
OFFSET 0 0.000000 0.000000
CHANNELS 3 Zrotation Xrotation Yrotation
									End Site
									{
OFFSET 0 -0.515650 0.515650
									}
								}
							}
						}
					}
				}
				JOINT RightCollar
				{
					OFFSET 0 0 0
					CHANNELS 3 Zrotation Yrotation Xrotation
					JOINT RightShoulder
					{
						OFFSET -3.06467 1.61290 -0.28813
CHANNELS 3 Zrotation Xrotation Yrotation
						JOINT RightElbow
						{
OFFSET 0 -5.232000 -0.000000
CHANNELS 3 Zrotation Xrotation Yrotation
							JOINT RightWrist
							{
OFFSET 0 -3.656410 0.000000
CHANNELS 3 Zrotation Xrotation Yrotation
								JOINT rhand
								{
									OFFSET 0 0 0
CHANNELS 3 Zrotation Xrotation Yrotation
									JOINT RFingers
									{
OFFSET 0 -0.656810 0.000000
CHANNELS 3 Zrotation Xrotation Yrotation
										End Site
										{
OFFSET 0 -0.529530 0.000000
										}
									}
								}
								JOINT RThumb
								{
OFFSET 0 0.000000 0.000000
CHANNELS 3 Zrotation Xrotation Yrotation
									End Site
									{
OFFSET 0 -0.537620 0.537620
									}
								}
							}
						}
					}
				}
			}
		}
	}
}
MOTION
Frames: 9
Frame Time: .0083333
21.5138 14.7819 42.6253 -171.5220 -22.2226 -154.9630 0.0000 0.0000 0.0000 -1.0650 -16.9227 -83.6960 12.8316 18.7205 68.6017 0.8709 -4.4314 -16.7010 0.0194 -0.8997 -2.4729 0.0000 0.0000 0.0000 27.1737 4.6758 4.0712 -2.5248 -9.8828 28.5982 -2.4321 -21.8880 29.9867 -0.3890 -4.0050 11.0907 7.5381 3.8980 15.3379 -0.5438 6.6585 -3.4965 -6.4631 2.5779 -11.5695 -4.4657 -4.2933 -12.0593 5.3996 -5.7009 -7.0999 2.2571 -2.9950 0.0860 -0.0000 -0.0000 0.0000 42.264 52.9413 -74.6595 103.0117 -59.3505 71.2438 31.7518 -18.2266 8.3764 0.0 0.0 0.0 -7.1250 0.0 0.0 3.4970 20.1646 2.081 -0.0000 -0.0000 0.0000 -7.7506 6.1358 46.825 -128.2118 -53.6917 -92.3912 -25.8619 2.6552 -1.0728 0.0 0.0 0.0 7.1250 0.0 -0.0 0.5517 28.7874 0.2179
21.4043 14.8339 42.3170 -172.3400 -23.5960 -154.4500 0.0000 0.0000 0.0000 -1.9545 -18.0194 -82.7225 12.8943 18.7437 68.7968 0.8760 -3.0956 -16.9132 0.0004 0.1271 0.3491 0.0000 0.0000 0.0000 26.7670 3.8122 1.3350 -3.3056 -11.1741 32.8693 -2.1354 -21.2888 28.2892 -0.1953 -2.8457 7.8494 6.9536 3.4627 15.5779 -0.3882 5.9739 -3.1485 -5.8190 2.3139 -11.4915 -4.5998 -4.1953 -11.5068 5.3743 -5.6387 -8.6262 2.3124 -3.0182 -0.4979 -0.0000 0.0000 0.0000 39.3464 51.9153 -72.2347 100.5921 -59.5718 69.1599 32.2841 -18.3942 8.1238 0.0 0.0 0.0 -7.1250 0.0 0.0 3.9005 20.4066 2.301 -0.0000 0.0000 0.0000 -8.243 6.0042 46.8448 -128.1191 -53.7265 -92.3165 -26.145 2.5284 -1.1625 0.0 0.0 0.0 7.1250 0.0 -0.0 0.3316 28.6847 0.1317
21.2793 14.8908 41.9965 -173.1270 -24.4441 -154.3810 0.0000 0.0000 0.0000 -3.1452 -18.6540 -81.1071 12.9644 18.7693 69.0149 0.9533 -5.3497 -17.4361 0.0192 0.8935 2.4558 0.0000 0.0000 0.0000 25.9416 2.6616 -1.0263 -4.1665 -12.3787 37.0851 -1.9317 -19.2232 26.5687 -0.0151 0.7923 -2.1775 6.3035 3.1552 16.1833 -0.2266 5.4597 -2.6206 -5.1857 2.1345 -11.3902 -4.9123 -4.1461 -11.2912 5.3180 -5.6211 -9.8134 2.3802 -3.0486 -0.9126 0.0000 -0.0000 0.0000 36.3349 50.6327 -69.8682 98.2134 -59.7436 67.1069 32.8848 -18.7963 7.7527 0.0 0.0 0.0 -7.1250 0.0 0.0 4.3659 20.7832 2.5399 0.0000 -0.0000 0.0000 -8.6718 5.8695 46.9108 -127.7105 -53.8782 -91.9868 -26.4516 2.1569 -1.2466 0.0 0.0 0.0 7.1250 0.0 -0.0 0.0934 28.5875 0.0373
21.1530 14.9444 41.6753 -173.9380 -25.0623 -154.3410 0.0000 0.0000 0.0000 -4.4660 -19.0359 -79.3467 13.0199 18.7893 69.1872 0.9291 -7.6667 -17.2496 0.1613 2.5880 7.1337 0.0000 0.0000 0.0000 25.0107 1.8147 -3.2004 -5.0536 -13.4439 41.0536 -1.6369 -17.4060 24.3345 -0.5780 4.8685 -13.5339 5.5382 2.9293 16.7472 -0.1256 5.0104 -2.0479 -4.5557 1.9912 -11.1957 -4.9183 -4.0510 -11.1683 5.0899 -5.5783 -10.7810 2.3340 -3.0670 -1.2583 -0.0000 -0.0000 0.0000 33.3287 49.1122 -67.5459 95.7048 -59.8767 64.9385 33.6181 -19.4616 7.5906 0.0 0.0 0.0 -7.1250 0.0 0.0 4.9074 20.9028 2.8438 -0.0000 -0.0000 0.0000 -8.8435 5.8285 46.9789 -126.9865 -54.1409 -91.401 -26.8526 1.5599 -1.32 0.0 0.0 0.0 7.1250 0.0 -0.0 -0.2174 28.5003 -0.0873
21.0127 15.0072 41.3413 -174.7870 -25.3410 -154.2040 0.0000 0.0000 0.0000 -6.1340 -18.9802 -77.5209 13.0806 18.8111 69.3757 1.0731 -6.4504 -18.4924 0.0983 2.0214 5.5649 0.0000 0.0000 0.0000 23.8911 1.6063 -5.7472 -6.0022 -14.4304 44.9904 -1.3319 -14.8049 21.6696 -1.1193 6.7207 -18.8904 4.6568 2.7855 17.0172 -0.0355 4.6248 -1.5232 -3.8629 1.8840 -10.8755 -4.8212 -3.8934 -11.5661 4.6572 -5.4358 -11.0725 2.1763 -3.0172 -1.3128 -0.0000 0.0000 0.0000 30.0243 47.1547 -65.2409 92.9948 -59.9661 62.5932 34.205 -20.309 8.2177 0.0 0.0 0.0 -7.1250 0.0 0.0 5.2592 20.0951 3.1452 -0.0000 0.0000 0.0000 -9.1697 5.1053 46.9753 -123.8146 -55.2047 -88.8128 -27.6085 -0.5905 -1.3348 0.0 0.0 0.0 7.1250 0.0 -0.0 -0.8044 28.4731 -0.3236
20.8834 15.0524 41.0183 -175.6640 -25.8741 -153.9670 0.0000 0.0000 0.0000 -7.5648 -19.1768 -75.8499 13.1257 18.8271 69.5156 1.1494 -6.9326 -19.1467 0.1412 2.4220 6.6734 0.0000 0.0000 0.0000 22.8350 1.0792 -8.2076 -7.0036 -15.3349 48.8878 -1.0094 -13.6654 19.0407 -1.6972 8.2047 -23.3376 3.9396 2.5965 17.5014 -0.0051 4.2215 -1.1304 -3.3411 1.7382 -10.8015 -4.7809 -3.7932 -11.5378 4.4229 -5.3845 -11.7758 2.1132 -3.0231 -1.5596 -0.0000 0.0000 0.0000 27.4993 45.3163 -63.4948 90.3196 -59.9996 60.2768 34.7432 -20.8198 8.4806 0.0 0.0 0.0 -7.1250 0.0 0.0 5.6107 19.7202 3.4046 -0.0000 0.0000 0.0000 -9.298 4.8394 46.8418 -121.5571 -55.8805 -86.9513 -28.2299 -1.8122 -1.2869 0.0 0.0 0.0 7.1250 0.0 -0.0 -1.2879 28.5183 -0.5168
20.7525 15.0924 40.6945 -176.5540 -26.3103 -153.6910 0.0000 0.0000 0.0000 -9.0379 -19.2416 -74.1772 13.1698 18.8426 69.6521 1.2420 -7.4655 -19.9159 0.1717 2.6696 7.3603 0.0000 0.0000 0.0000 21.6918 0.6966 -10.7665 -8.0527 -16.1579 52.7524 -0.6617 -12.9366 15.9778 -2.0965 9.0642 -25.9963 3.2641 2.4301 18.0055 -0.0378 3.8492 -0.8056 -2.9180 1.5972 -10.7956 -4.6982 -3.6945 -11.5639 4.2271 -5.3314 -12.3605 2.0519 -3.0259 -1.7595 -0.0000 -0.0000 0.0000 25.2158 43.3301 -61.9862 87.5553 -59.9774 57.883 35.2196 -21.202 8.8227 0.0 0.0 0.0 -7.1250 0.0 0.0 5.9059 19.2528 3.6476 -0.0000 -0.0000 0.0000 -9.2734 4.5911 46.6276 -118.6599 -56.6566 -84.5416 -28.9563 -3.1048 -1.1702 0.0 0.0 0.0 7.1250 0.0 -0.0 -1.8554 28.6404 -0.7394
20.6219 15.1255 40.3712 -177.4470 -26.7133 -153.3390 0.0000 0.0000 0.0000 -10.4947 -19.2316 -72.5677 13.2114 18.8572 69.7808 1.3478 -7.9267 -20.7630 0.1873 2.7875 7.6876 0.0000 0.0000 0.0000 20.5075 0.4496 -13.4782 -9.1330 -16.8925 56.5489 -0.3114 -12.6069 12.4947 -2.2409 9.3508 -26.8990 2.6630 2.2652 18.4925 -0.1303 3.4874 -0.5672 -2.6022 1.4520 -10.8589 -4.5677 -3.5971 -11.5988 4.0939 -5.2762 -12.8757 2.0013 -3.0275 -1.9350 0.0000 0.0000 0.0000 23.1907 41.2043 -60.7151 84.6940 -59.8933 55.4065 35.6203 -21.398 9.2194 0.0 0.0 0.0 -7.1250 0.0 0.0 6.1378 18.7241 3.8648 0.0000 0.0000 0.0000 -9.0814 4.3807 46.3111 -115.0948 -57.4813 -81.5489 -29.7615 -4.3754 -1.0035 0.0 0.0 0.0 7.1250 0.0 -0.0 -2.4872 28.8202 -0.981
20.4918 15.1483 40.0489 -178.3130 -27.0975 -152.9310 0.0000 0.0000 0.0000 -11.8897 -19.1584 -71.0504 13.2624 18.8748 69.9384 1.4696 -8.3542 -21.6979 0.1843 2.7650 7.6253 0.0000 0.0000 0.0000 19.3104 0.3346 -16.3525 -10.2411 -17.5432 60.2913 0.0018 -12.4656 8.7220 -2.1945 9.2599 -26.6119 2.1592 2.0916 18.9576 -0.2662 3.1293 -0.4065 -2.3869 1.3004 -10.9822 -4.4184 -3.5006 -11.6431 4.0443 -5.2144 -13.3429 1.9738 -3.0261 -2.0920 0.0000 -0.0000 0.0000 21.3822 38.9405 -59.6396 81.7264 -59.7398 52.8411 35.9417 -21.3825 9.6318 0.0 0.0 0.0 -7.1250 0.0 0.0 6.3089 18.183 4.0498 0.0000 -0.0000 0.0000 -8.7411 4.2079 45.9036 -110.8521 -58.2916 -77.9549 -30.6128 -5.5618 -0.803 0.0 0.0 0.0 7.1250 0.0 -0.0 -3.1583 29.0406 -1.2298
